<?xml version="1.0" encoding="UTF-8"?> <svg xmlns="http://www.w3.org/2000/svg" xmlns:xlink="http://www.w3.org/1999/xlink" viewBox="0 0 85.94 80.21"><defs><clipPath id="clip-path"><path d="M3.4 67.21a10.69 10.69 0 0010.85 11.46 10.71 10.71 0 0010.86-11.46c-.77-18.11-.77-36.47 0-54.57A10.7 10.7 0 0014.25 1.17 10.68 10.68 0 003.4 12.63c.77 18.11.77 36.47 0 54.57z" fill="none"></path></clipPath><style>.cls-5{fill:#00aae7}</style></defs><g style="isolation:isolate"><g id="Layer_2" data-name="Layer 2"><g id="Layer_1-2" data-name="Layer 1"><g id="NMDC_Lockup_2_Horiz_CLR" data-name="NMDC Lockup 2_Horiz_CLR"><path d="M25.11 12.63A10.69 10.69 0 0014.25 1.17 10.68 10.68 0 003.4 12.63c.77 18.11.77 36.47 0 54.57a10.69 10.69 0 0010.85 11.47 10.71 10.71 0 0010.86-11.46c-.77-18.11-.77-36.47 0-54.57z" fill="#80d4f3"></path><g clip-path="url(#clip-path)"><path class="cls-5" d="M26.85 36q-2.89-4-5.48-8.12a2.13 2.13 0 00-3-.85 2.13 2.13 0 00-.33 3.09q2.89 3.95 5.48 8.12a2.13 2.13 0 003 .85 2.14 2.14 0 00.33-3.09z"></path><circle class="cls-5" cx="18.52" cy="74.33" r="5.88"></circle><circle class="cls-5" cx="27.6" cy="51.13" r="5.88"></circle><circle class="cls-5" cx="13.94" cy="5.54" r="5.54"></circle><circle class="cls-5" cx="21.41" cy="61.96" r="3.59"></circle><circle class="cls-5" cx="3.59" cy="47" r="3.59"></circle><circle class="cls-5" cx="22.75" cy="20.72" r="3.59"></circle><path class="cls-5" d="M14.05 19.62q-3.61 5.1-6.77 10.5a2.84 2.84 0 01-4.05 1A2.83 2.83 0 012.46 27c2.4-3.4 4.66-6.91 6.77-10.5a2.84 2.84 0 014-1 2.83 2.83 0 01.82 4.12z"></path><circle class="cls-5" cx="12.63" cy="37.83" r="4.53"></circle><circle class="cls-5" cx="5.68" cy="57.01" r="2.37"></circle><circle class="cls-5" cx="8" cy="70.48" r="2.37"></circle><circle class="cls-5" cx="7.04" cy="67.08" r="2.37"></circle><path class="cls-5" d="M19.73 48.79c-1.83 3.85-3.5 7.79-5 11.78a2.9 2.9 0 01-3.92 1.71 2.89 2.89 0 01-1.49-4c1.83-3.85 3.49-7.79 5-11.78a2.89 2.89 0 013.91-1.71 2.9 2.9 0 011.5 4z"></path></g><path d="M85.93 12.63a10.88 10.88 0 10-21.71 0c.76 18.11.76 36.47 0 54.57a10.69 10.69 0 0010.85 11.47 10.71 10.71 0 0010.86-11.46c-.77-18.11-.77-36.47 0-54.57z" fill="#e88320"></path><path d="M23.59 6.69a10.85 10.85 0 00-6.89-5.23 10.64 10.64 0 00-2.44-.29A11 11 0 008.23 3a10.7 10.7 0 00-2.84 15.53C15.93 33.29 26 48.67 35.2 64.25A10.88 10.88 0 1053.39 52.4a647.31 647.31 0 01-29.8-45.71z" style="mix-blend-mode:multiply" fill="#4f3b80"></path><path d="M80.93 3a11 11 0 00-6-1.84 10.55 10.55 0 00-2.43.29 10.87 10.87 0 00-6.89 5.22c-9.25 15.58-19.27 31-29.8 45.7A10.88 10.88 0 1054 64.26c9.25-15.59 19.27-31 29.8-45.71A10.69 10.69 0 0080.93 3z" style="mix-blend-mode:multiply" fill="#ed5338"></path></g></g></g></g></svg> 