<?xml version="1.0" encoding="UTF-8"?> <svg xmlns="http://www.w3.org/2000/svg" xmlns:xlink="http://www.w3.org/1999/xlink" id="Слой_1" x="0" y="0" viewBox="0 0 138.9 73.3" xml:space="preserve"><g id="Layer_2"><g id="Layer_1-2"><g id="NMDC_Lockup_2_Horiz_CLR"><path d="M1.3 45.3h1.1l5.7 9.2v-9.2H9v10.4H7.9l-5.6-9v9h-1V45.3zm14.8 5.3c-.1-1.2-.7-1.6-1.7-1.6s-1.7.3-1.8 1.3h-.9c.2-1.5 1.3-2 2.7-2 1.6 0 2.6.7 2.6 2.4v3.4c0 .6 0 1.1.1 1.6h-.9v-1.1.1c-.5.7-1.4 1.2-2.3 1.2-1.2.1-2.3-.8-2.5-2-.1-1 .5-2 1.5-2.3 1.1-.3 2.2-.4 3.3-.3l-.1-.7zm-2.2 4.6c1.9 0 2.3-1.6 2.2-3.1-1.2 0-3.8-.2-3.8 1.6 0 .8.6 1.4 1.4 1.5h.2zm6.3-5.9h-1.4v-.8h1.4V47l.9-.4v1.9h1.6v.8H21v4.9c-.1.5.3.9.8 1h.2c.3 0 .5 0 .8-.1v.8c-.3.1-.6.1-.9.1-1.8 0-1.7-1.2-1.7-2.2v-4.5zm5.5-2.9h-1v-1.1h1v1.1zm-.1 2.1v7.3h-.9v-7.3h.9zm8.9 3.6c0 1.9-1.1 3.8-3.4 3.8s-3.4-1.9-3.4-3.8 1.1-3.8 3.4-3.8 3.4 1.9 3.4 3.8zm-3.4-3c-1.8 0-2.4 1.7-2.4 3s.7 3 2.4 3 2.4-1.7 2.4-3-.6-3-2.4-3zm6.4 6.7h-.9v-5.6c0-.6-.1-1.1-.1-1.6h.9v1.1c.5-.8 1.3-1.3 2.3-1.3 2.4 0 2.6 2.1 2.6 2.9v4.6h-.9v-4.7c.1-1-.6-1.9-1.6-2h-.3c-1.4 0-2.1 1.2-2.1 2.5l.1 4.1zm11.7-5.2c.1-.8-.6-1.5-1.4-1.6h-.3c-.9 0-1.7.3-1.8 1.3h-.9c.2-1.5 1.3-2 2.7-2 1.6 0 2.6.7 2.6 2.4v3.4c0 .6 0 1.1.1 1.6h-.9v-1.1.1c-.5.7-1.4 1.2-2.3 1.2-1.2.1-2.3-.8-2.5-2-.1-1 .5-2 1.5-2.3 1.1-.3 2.2-.4 3.3-.3l-.1-.7zM47 55.2c1.9 0 2.3-1.6 2.2-3.1-1.2 0-3.8-.2-3.8 1.6 0 .8.6 1.4 1.4 1.5h.2zm6.5.6h-.9V45.3h.9v10.5zm7.3 0V45.3h1.5l3.9 9.1 4-9.1h1.4v10.4h-.9v-9.6l-4 9.6h-.9l-4-9.6v9.6h-1zm14.7-9.4h-1v-1.1h1v1.1zm-.1 2.1v7.3h-.9v-7.3h.9zm7.3 2.2c-.1-1.1-.8-1.7-2-1.7s-2.1 1.4-2.1 3 .8 3.1 2.1 3.1c1 .1 1.9-.6 2-1.6h.9c0 1.4-1.2 2.5-2.7 2.5h-.2c-2.2 0-3.2-1.9-3.2-3.8s1.1-3.8 3.2-3.8c1.4-.1 2.7.9 2.8 2.3v.1l-.8-.1zm3.9 5.1h-.9v-5.6c0-.6 0-1.1-.1-1.6h.9l.1 1.1c.2-.7.9-1.2 1.6-1.3h.9v.8c-.2 0-.4 0-.5-.1-1.3 0-2 .9-2 2.3v4.4zm10.5-3.7c0 1.9-1.1 3.8-3.4 3.8s-3.4-1.9-3.4-3.8 1.1-3.8 3.4-3.8 3.4 1.9 3.4 3.8zm-3.4-3c-1.8 0-2.4 1.7-2.4 3s.7 3 2.4 3 2.4-1.7 2.4-3-.6-3-2.4-3zm6.2 6.7H99c0-.5.1-1.1.1-1.6v-8.8h.9v4.2c.5-.8 1.5-1.3 2.5-1.3 2.1 0 3 1.9 3 3.8s-.8 3.9-2.9 3.9c-1 0-2-.5-2.5-1.3v.1l-.2 1zm0-3.8c0 1.7.6 3.2 2.5 3.2 1.7 0 2.1-1.8 2.1-3.1s-.6-3-2.2-3-2.3 1.4-2.4 2.9zm8.7-5.6h-1v-1.1h1v1.1zm0 2.1v7.3h-.9v-7.3h.9zm8.9 3.6c0 1.9-1.1 3.8-3.4 3.8s-3.4-1.9-3.4-3.8 1.1-3.8 3.4-3.8 3.4 1.9 3.4 3.8zm-3.4-3c-1.8 0-2.4 1.7-2.4 3s.7 3 2.4 3 2.4-1.7 2.4-3-.7-3-2.4-3zm6.4.5c.4-.8 1.3-1.3 2.3-1.3 1.1-.1 2 .6 2.4 1.6.5-.9 1.4-1.5 2.5-1.6 2.4 0 2.6 2.1 2.6 2.9v4.5h-.9V51c.1-1-.6-1.9-1.6-2h-.3c-1.4 0-2.1 1.2-2.1 2.5v4.2h-.9V51c.1-1-.6-1.9-1.6-2h-.3c-1.4 0-2.1 1.2-2.1 2.5v4.2h-.9v-5.6c0-.6 0-1.1-.1-1.6h.9l.1 1.1zm12.8 2.7c0 1.5.7 2.8 2.5 2.8 1 0 1.9-.7 2.1-1.7h.9c-.2 1.6-1.7 2.7-3.3 2.5-2.2 0-3.2-1.9-3.2-3.8s1.1-3.8 3.2-3.8c2.4 0 3.3 1.8 3.3 4h-5.5zm4.7-.8c.1-1.3-.9-2.4-2.2-2.5h-.2c-1.3.1-2.3 1.2-2.3 2.5h4.7zM4.1 62.7c3.4 0 5.4 1.8 5.4 5.2s-2 5.2-5.4 5.2H1.3V62.7h2.8zm.3 9.5c2.9 0 4.1-1.7 4.1-4.3 0-3.1-1.8-4.4-4.8-4.3H2.3v8.7l2.1-.1zM16.1 68c-.1-1.2-.7-1.6-1.7-1.6s-1.7.3-1.8 1.3h-.9c.2-1.5 1.3-2 2.7-2 1.6 0 2.6.7 2.6 2.4v3.4c0 .6 0 1.1.1 1.6h-.9V72v.1c-.5.7-1.4 1.2-2.3 1.2-1.2.1-2.3-.8-2.5-2-.1-1 .5-2 1.5-2.3 1.1-.3 2.2-.4 3.3-.3l-.1-.7zm-2.2 4.5c1.9 0 2.3-1.6 2.2-3.1-1.2 0-3.8-.2-3.8 1.6 0 .8.6 1.4 1.4 1.5h.2zm6.3-5.9h-1.4v-.8h1.4v-1.6l.9-.4v1.9h1.6v.8H21v4.8c-.1.5.3.9.8 1h.2c.3 0 .5 0 .8-.1v.8c-.3.1-.6.1-.9.1-1.8 0-1.7-1.2-1.7-2.2v-4.3zm8.9 1.4c-.1-1.2-.7-1.6-1.7-1.6s-1.7.3-1.8 1.3h-.9c.2-1.5 1.3-2 2.7-2 1.6 0 2.6.7 2.6 2.4v3.4c0 .6 0 1.1.1 1.6h-.9V72l-.1.1c-.5.7-1.4 1.2-2.3 1.2-1.2.1-2.3-.8-2.5-2-.1-1 .5-2 1.5-2.3 1.1-.3 2.2-.4 3.3-.3V68zm-2.2 4.5c1.9 0 2.3-1.6 2.2-3.1-1.2 0-3.8-.2-3.8 1.6 0 .8.6 1.4 1.4 1.5h.2zm16.7-7.4c-.2-1.2-1.3-1.9-2.5-1.8-2.7 0-3.5 2.4-3.5 4.6s.8 4.6 3.5 4.6c1.2.1 2.3-.7 2.6-1.9h1c-.4 1.7-1.9 2.8-3.6 2.8-3.2 0-4.5-2.6-4.5-5.4s1.4-5.4 4.5-5.4c1.7 0 3.3.8 3.5 2.7h-1zm9.6 4.4c0 1.9-1.1 3.8-3.4 3.8s-3.4-1.9-3.4-3.8 1.1-3.8 3.4-3.8 3.4 1.8 3.4 3.8zm-3.4-3c-1.8 0-2.4 1.7-2.4 3s.7 3 2.4 3 2.4-1.7 2.4-3-.6-3.1-2.4-3zm6.4 6.6h-.9V62.7h.9v10.4zm3.6 0h-.9V62.7h.9v10.4zm6.8-5.1c-.1-1.2-.7-1.6-1.7-1.6s-1.7.3-1.8 1.3h-.9c.2-1.5 1.3-2 2.7-2 1.6 0 2.6.7 2.6 2.4v3.4c0 .6 0 1.1.1 1.6h-.9V72v.1c-.5.7-1.4 1.2-2.3 1.2-1.2.1-2.3-.8-2.4-2.1-.1-1 .5-1.9 1.4-2.3 1.1-.3 2.2-.4 3.3-.3l-.1-.6zm-2.2 4.5c1.9 0 2.3-1.6 2.2-3.1-1.2 0-3.8-.2-3.8 1.6 0 .8.6 1.4 1.4 1.5h.2zm6.3.6h-.9c0-.5.1-1.1.1-1.6v-8.8h.9v4.2c.5-.8 1.5-1.3 2.5-1.3 2.1 0 3 1.9 3 3.8s-.8 3.9-2.9 3.9c-1 0-2-.5-2.5-1.3l-.2 1.1zm.1-3.8c0 1.7.6 3.2 2.5 3.2 1.7 0 2.1-1.8 2.1-3.2s-.6-2.9-2.2-2.9-2.4 1.4-2.4 2.9zm13.9.2c0 1.9-1.1 3.8-3.4 3.8s-3.4-1.9-3.4-3.8 1.1-3.8 3.4-3.8 3.4 1.8 3.4 3.8zm-3.4-3c-1.7 0-2.4 1.7-2.4 3s.7 3 2.4 3 2.4-1.7 2.4-3-.7-3.1-2.4-3zm6.4 6.6h-.9v-5.6c0-.6 0-1.1-.1-1.6h.9V67c.2-.7.9-1.2 1.6-1.3h.9v.8c-.2 0-.4 0-.5-.1-1.3 0-2 .9-2 2.3l.1 4.4zm8.4-5.1c-.1-1.2-.7-1.6-1.7-1.6s-1.7.3-1.8 1.3h-.9c.2-1.5 1.3-2 2.7-2 1.6 0 2.6.7 2.6 2.4v3.4c0 .6 0 1.1.1 1.6h-.9V72v.1c-.5.7-1.4 1.2-2.3 1.2-1.2.1-2.3-.8-2.4-2.1-.1-1 .5-1.9 1.4-2.3 1.1-.3 2.2-.4 3.3-.3l-.1-.6zm-2.2 4.5c1.9 0 2.3-1.6 2.2-3.1-1.2 0-3.8-.2-3.8 1.6 0 .8.6 1.4 1.4 1.5h.2zm6.3-5.9h-1.4v-.8h1.4v-1.6l.9-.4v1.9h1.6v.8h-1.6v4.8c-.1.5.3.9.8 1h.2c.3 0 .5 0 .8-.1v.8c-.3.1-.6.1-.9.1-1.8 0-1.7-1.2-1.7-2.2v-4.3zm5.5-2.9h-1v-1.1h1v1.1zm-.1 2.1v7.3h-.9v-7.3h.9zm2.7 0l2.5 6 2.4-6h1l-2.9 7.3h-1l-3-7.3h1zm7.8 3.9c0 1.5.7 2.8 2.5 2.8 1 0 1.9-.7 2.1-1.7h.9c-.2 1.6-1.7 2.7-3.3 2.5-2.2 0-3.2-1.9-3.2-3.8s1.1-3.8 3.2-3.8c2.4 0 3.3 1.8 3.3 4h-5.5zm4.7-.8c.1-1.3-.9-2.4-2.2-2.4h-.2c-1.3.1-2.3 1.1-2.3 2.4h4.7z" fill="#48206e"></path><path d="M13.9 7C11 7 8.3 8.4 6.6 10.7l-.1.1h-.4v-.3c0-1-.1-1.9-.1-2.9H0c.1 1.2.1 2.5.1 3.3v13.7h6.2v-7.5c0-4.3 2.8-6.3 5.4-6.3 2.9 0 4.5 1.8 4.5 5v8.7h6.2V15c0-5.1-3-8-8.5-8zm39.7 0c-2.9-.1-5.7 1.3-7.2 3.8l-.3.4-.1-.4c-1-2.4-3.4-3.9-6.1-3.8-2.8-.1-5.5 1.3-7 3.7l-.1.1h-.5v-.3c0-1-.1-1.9-.1-2.9h-6c.1 1.2.1 2.5.1 3.3v13.7h6.2v-8.1c0-3.2 1.9-5.6 4.4-5.6 3.4 0 3.9 2.7 3.9 5v8.7H47v-9.1c-.1-2.4 1.7-4.5 4.2-4.7h.2c2.6 0 4 1.7 4 4.8v8.9h6.2V15c.1-5.3-2.6-8-8-8zm34.3-7h-6.2v10.4l-.4-.4c-1.9-2-4.6-3.1-7.3-3-5.9 0-9.7 3.6-9.7 9.1s3.8 9.3 9.5 9.3c4.4 0 6.3-1.8 7.7-3.5l.4-.5v.7c0 1 0 1.8.1 2.6h6v-2.6L87.9 0zM76.1 21.9c-3.7 0-5.3-2.9-5.3-5.7-.2-2.9 2.1-5.4 5-5.5h.4c3.3 0 5.5 2.3 5.5 5.8.1 2.9-2.1 5.3-5 5.5-.3-.1-.4-.1-.6-.1zm26.8.1c-3.1 0-4.9-2.2-4.9-5.9 0-3.5 1.9-5.8 4.9-5.8 2.3 0 3.6 1 4.1 3h6.4c-.8-5.5-6.9-6.3-10.5-6.3s-11.6.9-11.6 9.3c0 6.7 6 9.1 11.1 9.1 3.8 0 10.3-.9 11.2-6.7H107c-.2 2.1-1.7 3.3-4.1 3.3z" fill="#4f3b80"></path><path fill="none" stroke="#48206e" stroke-width="1.03" stroke-miterlimit="10" d="M138.3 36.4H0"></path></g></g></g></svg> 